<svg xmlns="http://www.w3.org/2000/svg" aria-hidden="true" style="position:absolute;width:0;height:0;overflow:hidden">
  <defs>
  <symbol id="icon-organicsvg" viewBox="0 0 32 32">
<path d="M25.905 17.123c0.114-0.893 0.803-1.355 1.69-1.242s1.438 0.734 1.323 1.627c-0.114 0.893-0.803 1.355-1.69 1.242s-1.438-0.734-1.323-1.627zM26.385 17.184c-0.071 0.558 0.332 0.905 0.918 0.98 0.592 0.076 1.064-0.159 1.135-0.717s-0.327-0.904-0.918-0.98c-0.586-0.075-1.064 0.159-1.135 0.717z"></path>
<path d="M28.062 20.787c-0.034 0.095-0.063 0.163-0.102 0.238l-0.525-0.186 0.004-0.011c0.28-0.504 0.071-1.061-0.507-1.266l-1.384-0.49 0.197-0.557 2.71 0.959-0.197 0.557-0.509-0.18-0.004 0.011c0.289 0.263 0.443 0.569 0.317 0.924z"></path>
<path d="M26.615 23.318l-0.312 0.502-2.275-1.413c-0.703-0.436-0.749-1.055-0.319-1.748 0.436-0.703 1.045-0.861 1.488-0.659l-0.315 0.507c-0.245-0.086-0.514-0.015-0.76 0.382-0.261 0.421-0.204 0.754 0.236 1.027l0.296 0.184 0.006-0.010c-0.102-0.242-0.144-0.579 0.097-0.966 0.38-0.612 1.090-0.807 1.86-0.329 0.774 0.481 0.91 1.201 0.53 1.813-0.24 0.387-0.561 0.499-0.814 0.521l-0.006 0.010 0.287 0.178zM25.109 21.476c-0.252 0.406-0.136 0.816 0.38 1.137s0.935 0.243 1.188-0.163c0.273-0.44 0.083-0.869-0.371-1.151-0.449-0.279-0.923-0.262-1.196 0.178z"></path>
<path d="M24.021 25.083c0.143 0.151 0.342 0.18 0.627-0.091 0.343-0.326 0.368-0.552 0.133-0.84l0.416-0.395c0.359 0.419 0.401 0.977-0.227 1.574-0.461 0.438-0.97 0.588-1.497 0.034l-0.942-0.991c-0.14-0.147-0.246-0.193-0.398-0.018l-0.194-0.204c0.063-0.13 0.125-0.204 0.206-0.281 0.228-0.217 0.412-0.236 0.647-0.071l0.008-0.008c-0.044-0.308 0.072-0.659 0.395-0.965 0.424-0.403 0.918-0.406 1.251-0.056 0.434 0.457 0.231 0.921-0.194 1.519-0.264 0.367-0.421 0.594-0.231 0.794zM23.422 23.253c-0.355 0.337-0.433 0.745-0.111 1.084l0.298 0.314c0.023-0.115 0.143-0.323 0.305-0.553 0.281-0.415 0.339-0.664 0.138-0.876-0.182-0.192-0.397-0.189-0.63 0.032z"></path>
<path d="M21.959 27.496c-0.469 0.256-0.988 0.187-1.304-0.39l-0.953-1.743 0.523-0.286 0.872 1.595c0.186 0.341 0.448 0.48 0.804 0.285 0.4-0.219 0.524-0.601 0.319-0.976l-0.84-1.535 0.518-0.283 1.379 2.523-0.518 0.283-0.178-0.326-0.010 0.005c-0.025 0.27-0.179 0.611-0.613 0.848z"></path>
<path d="M20.145 28.701c0.155-0.050 0.351 0.005 0.413 0.197s-0.065 0.346-0.22 0.397c-0.166 0.054-0.354 0.003-0.417-0.19s0.058-0.35 0.224-0.404zM20.274 28.151l-0.562 0.182-0.888-2.735 0.562-0.182 0.887 2.735z"></path>
<path d="M16.736 27.841c0.059 0.287 0.289 0.615 0.791 0.551 0.575-0.073 0.758-0.596 0.689-1.132s-0.371-0.996-0.952-0.922c-0.502 0.064-0.642 0.434-0.624 0.755l-0.586 0.075c-0.040-0.664 0.406-1.215 1.148-1.31 0.854-0.109 1.485 0.434 1.599 1.327s-0.36 1.578-1.208 1.686c-0.742 0.095-1.288-0.317-1.444-0.956l0.586-0.075z"></path>
<path d="M11.036 28.715c0.36 0.13 0.512 0.136 0.609-0.175l0.094-0.301-0.505-0.158 0.144-0.462 0.505 0.158 0.712-2.283 0.569 0.178-0.712 2.283 0.392 0.122-0.144 0.462-0.392-0.122-0.109 0.349c-0.181 0.58-0.492 0.707-0.943 0.566-0.14-0.044-0.258-0.098-0.364-0.155l0.144-0.462z"></path>
<path d="M10.993 24.692c0.788 0.435 0.964 1.245 0.532 2.029s-1.212 1.067-2 0.632c-0.788-0.435-0.964-1.245-0.532-2.029s1.212-1.067 2-0.632zM10.759 25.116c-0.493-0.272-0.964-0.024-1.249 0.493-0.288 0.522-0.244 1.048 0.249 1.32s0.961 0.029 1.249-0.493c0.285-0.517 0.244-1.048-0.249-1.32z"></path>
<path d="M8.902 23.159c0.653 0.62 0.618 1.449 0.002 2.097s-1.442 0.725-2.095 0.105c-0.653-0.62-0.618-1.449-0.002-2.097s1.442-0.725 2.095-0.105zM8.569 23.509c-0.408-0.388-0.926-0.267-1.333 0.161-0.411 0.432-0.501 0.952-0.093 1.34s0.922 0.271 1.333-0.161c0.407-0.428 0.501-0.952 0.093-1.34z"></path>
<path d="M3.389 22.669l-0.304-0.506 3.448-2.072 0.304 0.506-0.285 0.171 0.006 0.010c0.247 0.029 0.58 0.157 0.809 0.538 0.38 0.632 0.169 1.395-0.642 1.882s-1.583 0.314-1.963-0.317c-0.229-0.381-0.195-0.729-0.085-0.973l-0.006-0.010-1.283 0.771zM6.901 21.478c-0.249-0.415-0.745-0.465-1.29-0.137-0.55 0.33-0.734 0.789-0.485 1.204 0.267 0.444 0.814 0.437 1.296 0.147s0.745-0.769 0.479-1.213z"></path>
<path d="M5.768 16.237c0.035 0.9-0.568 1.469-1.462 1.503s-1.539-0.487-1.574-1.386 0.568-1.469 1.462-1.504c0.894-0.035 1.539 0.487 1.574 1.386zM5.284 16.255c-0.022-0.562-0.477-0.837-1.067-0.815-0.596 0.023-1.023 0.332-1.001 0.895s0.472 0.838 1.067 0.815c0.59-0.023 1.023-0.332 1.002-0.895z"></path>
<path d="M3.042 12.923c0.018-0.1 0.036-0.171 0.062-0.252l0.548 0.098-0.002 0.011c-0.194 0.543 0.102 1.059 0.706 1.167l1.446 0.259-0.104 0.582-2.83-0.506 0.104-0.582 0.532 0.095 0.002-0.011c-0.328-0.213-0.53-0.489-0.463-0.86z"></path>
<path d="M4.051 10.203l0.226-0.546 2.474 1.025c0.764 0.316 0.91 0.919 0.598 1.673-0.316 0.764-0.891 1.019-1.362 0.891l0.228-0.551c0.255 0.045 0.51-0.069 0.688-0.5 0.189-0.457 0.078-0.777-0.4-0.976l-0.322-0.133-0.004 0.010c0.139 0.222 0.236 0.548 0.061 0.969-0.276 0.665-0.945 0.973-1.782 0.626-0.842-0.349-1.093-1.037-0.817-1.703 0.174-0.421 0.473-0.584 0.718-0.646l0.004-0.010-0.312-0.129zM5.835 11.777c0.183-0.442 0.002-0.828-0.56-1.060s-0.962-0.088-1.145 0.354c-0.198 0.478 0.059 0.871 0.553 1.076 0.489 0.202 0.954 0.109 1.152-0.369z"></path>
<path d="M6.325 8.036c-0.166-0.126-0.366-0.123-0.605 0.19-0.286 0.376-0.276 0.603 0.003 0.851l-0.348 0.457c-0.422-0.356-0.552-0.901-0.027-1.59 0.385-0.506 0.864-0.735 1.473-0.272l1.088 0.828c0.161 0.123 0.273 0.152 0.395-0.046l0.224 0.17c-0.042 0.138-0.091 0.221-0.159 0.311-0.191 0.251-0.369 0.299-0.627 0.173l-0.007 0.009c0.092 0.297 0.033 0.662-0.236 1.016-0.354 0.466-0.841 0.548-1.226 0.254-0.501-0.382-0.375-0.873-0.051-1.531 0.202-0.405 0.321-0.654 0.102-0.821zM7.207 9.747c0.297-0.389 0.309-0.805-0.063-1.088l-0.345-0.262c-0.004 0.117-0.090 0.341-0.213 0.595-0.211 0.454-0.229 0.71 0.004 0.887 0.21 0.16 0.422 0.123 0.616-0.132z"></path>
<path d="M7.935 5.343c0.42-0.33 0.943-0.347 1.35 0.171l1.226 1.562-0.469 0.368-1.122-1.43c-0.24-0.305-0.521-0.399-0.84-0.149-0.359 0.281-0.418 0.679-0.154 1.015l1.080 1.377-0.465 0.365-1.775-2.262 0.465-0.365 0.229 0.292 0.009-0.007c-0.019-0.271 0.076-0.632 0.466-0.938z"></path>
<path d="M9.554 3.834c-0.145 0.075-0.347 0.053-0.44-0.127s0.007-0.352 0.152-0.427c0.155-0.080 0.349-0.060 0.442 0.119s0 0.355-0.155 0.435zM9.517 4.399l0.524-0.272 1.323 2.553-0.524 0.272-1.323-2.553z"></path>
<path d="M13.060 4.122c-0.106-0.274-0.385-0.56-0.87-0.415-0.555 0.166-0.65 0.712-0.495 1.229s0.529 0.922 1.089 0.754c0.485-0.145 0.563-0.533 0.492-0.846l0.566-0.17c0.147 0.649-0.202 1.265-0.919 1.48-0.825 0.247-1.536-0.186-1.794-1.048s0.097-1.615 0.917-1.861c0.717-0.215 1.323 0.103 1.58 0.707l-0.566 0.17z"></path>
<path d="M18.518 2.329c-0.377-0.070-0.527-0.051-0.572 0.272l-0.044 0.312 0.524 0.073-0.067 0.479-0.524-0.073-0.331 2.368-0.591-0.082 0.331-2.368-0.407-0.057 0.067-0.479 0.407 0.057 0.051-0.362c0.084-0.602 0.37-0.778 0.838-0.712 0.145 0.020 0.271 0.055 0.385 0.093l-0.067 0.479z"></path>
<path d="M19.227 6.287c-0.849-0.3-1.155-1.071-0.856-1.915s1.021-1.25 1.87-0.95c0.849 0.3 1.155 1.071 0.856 1.915s-1.021 1.25-1.87 0.95zM19.388 5.83c0.53 0.188 0.954-0.134 1.152-0.691 0.199-0.562 0.070-1.074-0.461-1.261s-0.953 0.128-1.152 0.691c-0.197 0.557-0.070 1.074 0.461 1.261z"></path>
<path d="M21.506 7.43c-0.745-0.505-0.846-1.329-0.344-2.069s1.304-0.951 2.049-0.446c0.745 0.505 0.846 1.329 0.344 2.069s-1.304 0.951-2.049 0.446zM21.777 7.029c0.466 0.316 0.957 0.112 1.289-0.377 0.335-0.494 0.339-1.021-0.127-1.337s-0.954-0.117-1.289 0.377c-0.332 0.489-0.339 1.021 0.127 1.337z"></path>
<path d="M27.085 7.066l0.381 0.451-3.072 2.597-0.381-0.451 0.253-0.214-0.007-0.009c-0.248 0.011-0.598-0.062-0.885-0.402-0.476-0.563-0.39-1.35 0.332-1.96s1.512-0.564 1.988-0.001c0.287 0.339 0.31 0.689 0.24 0.946l0.007 0.009 1.143-0.966zM23.809 8.804c0.312 0.37 0.81 0.339 1.296-0.071 0.49-0.414 0.598-0.896 0.286-1.266-0.334-0.395-0.873-0.301-1.303 0.063s-0.613 0.879-0.278 1.274z"></path>
</symbol>
    <symbol id="icon-Food-Boutique" viewBox="0 0 227 32">
      <path
        d="M0 22.964c1.711-0.209 2.653-0.977 2.653-2.339v-14.208c0-1.361-0.943-2.164-2.653-2.339v-1.396h17.734c0.314 0 0.454 0.105 0.489 0.349 0.105 1.047 0.175 2.095 0.733 4.643h-0.873c-1.222-2.129-2.269-3.247-4.329-3.247h-2.967c-1.571 0-2.234 0.873-2.234 2.269v3.665c0 1.396 0.663 2.164 2.234 2.164h1.396c2.828 0 3.351-0.663 3.631-2.234h0.768v6.214h-0.768c-0.279-1.466-0.803-2.199-3.631-2.199h-1.396c-1.571 0-2.234 0.768-2.234 2.164v4.154c0 1.361 0.943 2.129 3.002 2.339v1.396h-11.555v-1.396zM27.767 24.57c-4.295 0-8.659-2.583-8.659-8.239 0-5.62 4.364-8.029 8.553-8.029 4.329 0 8.657 2.583 8.657 8.239 0 5.62-4.329 8.029-8.553 8.029zM24.694 14.796c0 4.329 1.431 8.169 3.665 8.169 1.361 0 2.374-1.361 2.374-4.957 0-4.294-1.361-8.134-3.665-8.134-1.396 0-2.374 1.396-2.374 4.922zM46.534 24.57c-4.294 0-8.657-2.583-8.657-8.239 0-5.62 4.364-8.029 8.553-8.029 4.329 0 8.657 2.583 8.657 8.239 0 5.62-4.329 8.029-8.553 8.029zM43.462 14.796c0 4.329 1.431 8.169 3.665 8.169 1.361 0 2.374-1.361 2.374-4.957 0-4.294-1.361-8.134-3.665-8.134-1.396 0-2.374 1.396-2.374 4.922zM63.312 24.57c-3.281 0-6.668-2.688-6.668-7.855 0-5.551 3.805-8.413 7.505-8.413 3.84 0 4.852 3.002 4.852-0.524v-2.095c0-1.641-0.908-1.92-2.199-1.815v-1.361l5.69-0.943c1.187-0.175 1.745 0.349 1.745 1.396v17.839c0 1.152 0.454 1.92 1.466 1.501v0.768c-0.489 1.187-1.745 1.501-2.828 1.501-1.187 0-2.688-0.384-3.107-1.431-0.279-0.663-0.593-1.012-1.117-1.012-0.698 0-2.095 2.444-5.341 2.444zM62.265 14.9c0 3.456 1.536 6.842 3.77 6.842 1.361 0 2.967-0.977 2.967-3.91v-1.641c0-4.538-2.129-6.319-3.875-6.319-1.78 0-2.863 2.199-2.863 5.027zM83.031 22.964c1.711-0.209 2.653-0.977 2.653-2.339v-14.173c0-1.396-0.943-2.199-2.653-2.374v-1.396h10.787c6.842 0 10.228 1.641 10.228 5.167 0 1.99-1.152 3.945-5.132 4.573 4.468 0.628 6.388 2.723 6.388 5.69 0 4.049-3.596 6.249-8.483 6.249-2.793 0-8.727-0.873-13.789 0v-1.396zM91.584 21.149c0 0.908 0.559 1.327 1.571 1.327h1.222c2.653 0 4.643-1.012 4.643-4.399 0-3.281-2.025-4.713-5.865-4.713-0.908 0-1.571 0.698-1.571 2.095v5.69zM91.584 9.594c0 1.396 0.663 2.095 2.234 2.095h0.908c2.409 0 3.037-1.885 3.037-3.491 0-2.444-1.327-3.805-3.596-3.805h-0.349c-1.571 0-2.234 0.733-2.234 2.129v3.072zM115.536 24.57c-4.294 0-8.657-2.583-8.657-8.239 0-5.62 4.364-8.029 8.553-8.029 4.329 0 8.657 2.583 8.657 8.239 0 5.62-4.329 8.029-8.553 8.029zM112.464 14.796c0 4.329 1.431 8.169 3.665 8.169 1.361 0 2.374-1.361 2.374-4.957 0-4.294-1.361-8.134-3.665-8.134-1.396 0-2.374 1.396-2.374 4.922zM131.677 24.57c-2.444 0-5.097-1.012-5.097-6.493v-5.551c0-1.606-0.908-1.885-2.199-1.85v-1.361l5.69-0.943c1.187-0.175 1.745 0.349 1.745 1.396v7.471c0 2.444 1.012 4.189 2.897 4.189 1.92 0 2.897-1.745 2.897-4.189v-4.713c0-1.606-0.908-1.885-2.199-1.85v-1.361l5.655-0.943c1.222-0.175 1.78 0.349 1.78 1.396v11.031c0 1.152 0.454 1.92 1.466 1.501v0.768c-0.489 1.187-1.745 1.501-2.932 1.501-2.513 0-3.212-1.571-3.386-2.339-0.105-0.489-0.384-0.733-0.628-0.733s-0.419 0.209-0.593 0.454c-0.977 1.327-2.339 2.618-5.097 2.618zM152.495 24.535c-3.212 0-5.167-1.78-5.167-5.167v-7.645c0-1.222-0.279-1.466-1.082-1.466h-1.571v-1.117c2.897-0.663 4.294-1.99 5.481-3.91 0.279-0.454 0.524-0.593 0.977-0.593h0.628c0.524 0 0.838 0.314 0.838 0.838l-0.035 2.164c0 0.768 0.384 0.977 2.164 0.977h2.269v1.85l-2.269-0.14c-1.78-0.105-2.164 0.209-2.164 1.466v7.401c0 1.92 0.209 3.212 1.92 3.212 0.454 0 1.152-0.070 1.815-0.559 0.454 0.559 0.628 1.047 0.175 1.466-0.803 0.698-2.234 1.222-3.98 1.222zM158.406 22.999c1.606-0.105 2.199-0.628 2.199-2.513v-7.994c0-1.641-0.908-1.92-2.164-1.815v-1.361l5.655-0.943c1.187-0.175 1.745 0.349 1.745 1.396v10.717c0 1.885 0.593 2.409 2.164 2.513v1.361h-9.6v-1.361zM159.767 3.974c0-1.676 1.396-2.967 3.037-2.967 1.606 0 2.967 1.292 2.967 2.967s-1.361 2.967-2.967 2.967c-1.641 0-3.037-1.292-3.037-2.967zM178.431 29.667c1.99-0.14 2.583-0.663 2.583-2.409v-3.735c0-0.628-0.314-0.838-0.628-0.838-0.175 0-0.349 0.070-0.489 0.209-0.698 0.698-2.199 1.676-4.399 1.676-3.596 0-6.912-2.653-6.912-7.785 0-5.585 3.875-8.483 7.889-8.483 3.491 0 4.957 2.129 6.249 2.129 1.222 0 1.711-2.095 2.688-2.095 0.628 0 0.838 0.349 0.838 0.838v18.083c0 1.745 0.593 2.269 2.164 2.409v1.327h-9.984v-1.327zM174.207 14.865c0 3.456 1.466 6.877 3.91 6.877 1.327 0 2.863-0.977 2.897-4.887-0.035-5.236-2.199-6.982-3.945-6.982-1.885 0-2.863 2.199-2.863 4.992zM195.191 24.57c-2.444 0-5.097-1.012-5.097-6.493v-5.551c0-1.606-0.908-1.885-2.199-1.85v-1.361l5.69-0.943c1.187-0.175 1.745 0.349 1.745 1.396v7.471c0 2.444 1.012 4.189 2.897 4.189 1.92 0 2.897-1.745 2.897-4.189v-4.713c0-1.606-0.908-1.885-2.199-1.85v-1.361l5.655-0.943c1.222-0.175 1.78 0.349 1.78 1.396v11.031c0 1.152 0.454 1.92 1.466 1.501v0.768c-0.489 1.187-1.745 1.501-2.932 1.501-2.513 0-3.212-1.571-3.386-2.339-0.105-0.489-0.384-0.733-0.628-0.733s-0.419 0.209-0.593 0.454c-0.977 1.327-2.339 2.618-5.097 2.618zM217.917 24.57c-4.364 0-8.692-2.513-8.692-7.994 0-5.725 4.678-8.273 9.007-8.273 3.7 0 6.703 1.85 6.703 4.922 0 3.142-3.037 3.316-6.109 3.561l-2.723 0.209c-0.593 0.035-0.908 0.314-0.908 1.117 0 2.583 2.793 3.735 5.097 3.735 1.222 0 2.897-0.349 4.154-1.78l1.047 0.943c-0.663 1.361-3.491 3.561-7.575 3.561zM214.95 14.132c0 1.012 0.244 1.536 1.152 1.501l1.257-0.14c2.409-0.244 2.897-0.873 2.897-2.234 0-1.676-0.698-3.351-2.513-3.351-2.269 0-2.793 2.548-2.793 4.224z"></path>
    </symbol>
    <symbol id="icon-logo" viewBox="0 0 32 32">
      <path d="M17.487 4.624a5.36 5.36 0 0 0-1.817-1.707c-2.011-1.153-4.601-.951-6.992.388C4.239 5.792 1.333 10.466 1.333 16c0 7.387 5.347 13.351 12.329 14.48a14.67 14.67 0 0 0 2.337.187 14.625 14.625 0 0 0 10.426-4.32 14.613 14.613 0 0 0 4.24-10.46c-.031-2.576-1.064-5.737-2.697-8.264-1.627-2.517-4.128-4.811-7.236-4.781-1.517.003-2.553.837-3.245 1.784v-.001zm8.873 5.526a6.332 6.332 0 0 0-1.684-.044l-1.547-2.6-2.291 1.36 1.189 2a9.055 9.055 0 0 0-1.42.833 7.286 7.286 0 0 0-.024-.077c-.356-1.08-1.044-1.967-1.961-2.848l.005-.027c.092-.431.239-.987.459-1.527.497-1.221 1.075-1.716 1.653-1.716h.015c1.721-.019 3.515 1.303 4.975 3.561.227.351.437.712.632 1.083l-.001.001zm-8.215 3.996c-.44.011-.892.06-1.333.156a5.013 5.013 0 0 0-1.416-1.527c-1.053-.74-2.496-1.107-4.056-.524a18.259 18.259 0 0 0-.432-.241l4.311-4.225-1.867-1.904-5.113 5.012c-1.08-.313-2.089-.425-2.996-.3a11.607 11.607 0 0 1 4.74-4.963c1.819-1.019 3.383-.963 4.361-.401.933.535 1.708 1.748 1.513 3.916l-.06.671.504.447c1.096.969 1.552 1.596 1.749 2.195.139.42.184.928.095 1.689zm-3.746 1.34c-1.139.953-1.903 2.291-2.347 3.736l-3.965-4.353-1.972 1.797 5.451 5.984c-.007 1.589.197 3.216.493 4.687A11.933 11.933 0 0 1 3.999 16c0-1.387.385-2.143.839-2.473.428-.315 1.368-.572 3.293.139.696.257 1.501.652 2.423 1.225l.669.416.688-.387c.831-.467 1.465-.301 1.952.04.213.149.396.336.536.527zm2.353 12.49 9.723-10.716-1.975-1.792-3.909 4.308.009-1.352-2.667-.019-.031 4.333-3.311 3.649c-.251-1.361-.4-2.824-.352-4.196.085-2.34 1.02-4.263 2.403-5.024.573-.316 1.585-.44 2.385-.299l1.187.207.327-1.159c.171-.604.623-1.251 1.329-1.827a6.365 6.365 0 0 1 2.445-1.221c1.068-.261 1.979-.125 2.579.288.524.36 1.051 1.096 1.1 2.605v.024l.004.213a11.947 11.947 0 0 1-11.246 11.976z"/>
    </symbol>
    <symbol id="icon-basket" viewBox="0 0 32 32">
      <path d="M4.801 1.6a1.6 1.6 0 0 0 0 3.2h1.952l.488 1.955.016.067L9.43 15.51l-1.429 1.427c-2.016 2.016-.589 5.462 2.262 5.462h13.738a1.6 1.6 0 0 0 0-3.2H10.263l1.6-1.6h10.538a1.602 1.602 0 0 0 1.431-.884l4.8-9.6a1.602 1.602 0 0 0-1.43-2.315H10.05l-.496-1.989a1.601 1.601 0 0 0-1.552-1.212h-3.2zm20.8 24.8a2.4 2.4 0 1 1-4.799 0 2.4 2.4 0 0 1 4.799 0zm-15.2 2.4a2.4 2.4 0 1 0 0-4.799 2.4 2.4 0 0 0 0 4.799z"/>
    </symbol>
    <symbol id="icon-leaf" viewBox="0 0 32 32">
      <path d="M22.667 10.667c-12 2.667-14.8 10.893-17.573 17.787l2.52.88 1.267-3.067c.64.227 1.307.4 1.787.4C25.335 26.667 29.335 4 29.335 4c-1.333 2.667-10.667 3-17.333 4.333s-9.333 7-9.333 9.667 2.333 5 2.333 5c4.333-12.333 17.667-12.333 17.667-12.333z"/>
    </symbol>
    <symbol id="icon-facebook" viewBox="0 0 32 32">
      <path d="M19.519 4.64h.96v3.6h-1.2c-.48 0-.96 0-1.2.24s-.24.48-.24 1.04v1.28h2.64v3.04h-2.64v13.2h-4.08V13.76h-2.16v-3.04h2.16V9.68c0-1.76.24-3.04.72-3.6.72-1.04 2.16-1.52 4.32-1.52.24.08.48.08.72.08z"/>
    </symbol>
    <symbol id="icon-instagram" viewBox="0 0 32 32">
      <path d="M28.718 10.756a9.264 9.264 0 0 0-.596-3.145 6.547 6.547 0 0 0-3.743-3.737 9.42 9.42 0 0 0-3.108-.596c-1.367-.061-1.801-.078-5.273-.078s-3.916 0-5.274.078a9.418 9.418 0 0 0-3.106.596 6.541 6.541 0 0 0-3.743 3.737 9.288 9.288 0 0 0-.596 3.101c-.061 1.367-.08 1.8-.08 5.265s0 3.909.08 5.265a9.335 9.335 0 0 0 .596 3.104 6.548 6.548 0 0 0 3.744 3.735 9.37 9.37 0 0 0 3.106.639c1.369.061 1.803.079 5.274.079s3.917 0 5.274-.079a9.362 9.362 0 0 0 3.108-.595 6.555 6.555 0 0 0 3.743-3.737 9.346 9.346 0 0 0 .596-3.104c.061-1.365.08-1.798.08-5.265-.003-3.466-.003-3.906-.082-5.264zM15.991 22.531c-3.631 0-6.572-2.936-6.572-6.561s2.941-6.561 6.572-6.561c3.628 0 6.572 2.936 6.572 6.561s-2.944 6.561-6.572 6.561zm6.833-11.835a1.53 1.53 0 1 1 0-3.06 1.53 1.53 0 1 1 0 3.06z"/>
      <path d="M15.991 19.976a4.004 4.004 0 1 0 0-8.009 4.004 4.004 0 0 0 0 8.009z"/>
    </symbol>
    <symbol id="icon-youtube" viewBox="0 0 32 32">
      <path d="M24.241 6c-1.36-.08-4.16-.16-8.4-.16h-.56c-4.08 0-6.8.08-8.16.24-1.84.16-3.12.64-3.84 1.28-.64.56-1.12 1.6-1.28 2.96-.08.88-.16 2.72-.16 5.52v.4c0 2.64.08 4.48.24 5.36.24 1.28.64 2.24 1.44 2.8.8.64 2.16 1.04 4.08 1.2 1.36.08 4.16.16 8.4.16h.56c4.08 0 6.8-.08 8.16-.24 1.84-.16 3.12-.64 3.84-1.28.64-.56 1.12-1.6 1.28-2.96.08-.88.16-2.72.16-5.52v-.4c0-2.64-.08-4.48-.24-5.36-.24-1.28-.64-2.24-1.44-2.8-.8-.64-2.16-1.04-4.08-1.2zm-3.12 9.84-8.8 5.28V10.56l8.8 5.28z"/>
    </symbol>
    <symbol id="icon-loupe" viewBox="0 0 32 32">
      <path d="M20.667 18.667h-1.053l-.373-.36a8.625 8.625 0 0 0 2.093-5.64 8.668 8.668 0 0 0-5.35-8.007A8.66 8.66 0 0 0 6.54 6.539a8.67 8.67 0 0 0-1.879 9.444 8.671 8.671 0 0 0 8.007 5.35 8.63 8.63 0 0 0 5.64-2.093l.36.373v1.053l6.667 6.653 1.987-1.987-6.653-6.667zm-8 0c-3.32 0-6-2.68-6-6s2.68-6 6-6 6 2.68 6 6-2.68 6-6 6z"/>
    </symbol>
    <symbol id="icon-close" viewBox="0 0 32 32">
      <path
        d="M25 9.093 22.907 7 16 13.907 9.093 7 7 9.093 13.907 16 7 22.907 9.093 25 16 18.093 22.907 25 25 22.907 18.093 16 25 9.093z" />
</symbol>
    <symbol id="icon-check" viewBox="0 0 24 24">
<path d="M19.293 5.293l-10.293 10.293-4.293-4.293c-0.391-0.391-1.024-0.391-1.414 0s-0.391 1.024 0 1.414l5 5c0.391 0.391 1.024 0.391 1.414 0l11-11c0.391-0.391 0.391-1.024 0-1.414s-1.024-0.391-1.414 0z"></path>
</symbol>
    <symbol id="icon-chevron-down" viewBox="0 0 24 24">
<path d="M5.293 9.707l6 6c0.391 0.391 1.024 0.391 1.414 0l6-6c0.391-0.391 0.391-1.024 0-1.414s-1.024-0.391-1.414 0l-5.293 5.293-5.293-5.293c-0.391-0.391-1.024-0.391-1.414 0s-0.391 1.024 0 1.414z"></path>
</symbol>
   <symbol id="icon-chevron-left" viewBox="0 0 24 24">
<path d="M15.707 17.293l-5.293-5.293 5.293-5.293c0.391-0.391 0.391-1.024 0-1.414s-1.024-0.391-1.414 0l-6 6c-0.391 0.391-0.391 1.024 0 1.414l6 6c0.391 0.391 1.024 0.391 1.414 0s0.391-1.024 0-1.414z"></path>
</symbol>
    <symbol id="icon-chevron-right" viewBox="0 0 24 24">
<path d="M9.707 18.707l6-6c0.391-0.391 0.391-1.024 0-1.414l-6-6c-0.391-0.391-1.024-0.391-1.414 0s-0.391 1.024 0 1.414l5.293 5.293-5.293 5.293c-0.391 0.391-0.391 1.024 0 1.414s1.024 0.391 1.414 0z"></path>
</symbol>
    <symbol id="icon-minus" viewBox="0 0 24 24">
<path d="M5 13h14c0.552 0 1-0.448 1-1s-0.448-1-1-1h-14c-0.552 0-1 0.448-1 1s0.448 1 1 1z"></path>
</symbol>
   <symbol id="icon-plus" viewBox="0 0 24 24">
<path d="M5 13h6v6c0 0.552 0.448 1 1 1s1-0.448 1-1v-6h6c0.552 0 1-0.448 1-1s-0.448-1-1-1h-6v-6c0-0.552-0.448-1-1-1s-1 0.448-1 1v6h-6c-0.552 0-1 0.448-1 1s0.448 1 1 1z"></path>
</symbol>
  </defs>
</svg>
