<svg xmlns="http://www.w3.org/2000/svg" aria-hidden="true" style="position:absolute;width:0;height:0;overflow:hidden">
  <defs>
  <symbol id="icon-organicsvg" viewBox="0 0 32 32">
<path d="M25.905 17.123c0.114-0.893 0.803-1.355 1.69-1.242s1.438 0.734 1.323 1.627c-0.114 0.893-0.803 1.355-1.69 1.242s-1.438-0.734-1.323-1.627zM26.385 17.184c-0.071 0.558 0.332 0.905 0.918 0.98 0.592 0.076 1.064-0.159 1.135-0.717s-0.327-0.904-0.918-0.98c-0.586-0.075-1.064 0.159-1.135 0.717z"></path>
<path d="M28.062 20.787c-0.034 0.095-0.063 0.163-0.102 0.238l-0.525-0.186 0.004-0.011c0.28-0.504 0.071-1.061-0.507-1.266l-1.384-0.49 0.197-0.557 2.71 0.959-0.197 0.557-0.509-0.18-0.004 0.011c0.289 0.263 0.443 0.569 0.317 0.924z"></path>
<path d="M26.615 23.318l-0.312 0.502-2.275-1.413c-0.703-0.436-0.749-1.055-0.319-1.748 0.436-0.703 1.045-0.861 1.488-0.659l-0.315 0.507c-0.245-0.086-0.514-0.015-0.76 0.382-0.261 0.421-0.204 0.754 0.236 1.027l0.296 0.184 0.006-0.010c-0.102-0.242-0.144-0.579 0.097-0.966 0.38-0.612 1.090-0.807 1.86-0.329 0.774 0.481 0.91 1.201 0.53 1.813-0.24 0.387-0.561 0.499-0.814 0.521l-0.006 0.010 0.287 0.178zM25.109 21.476c-0.252 0.406-0.136 0.816 0.38 1.137s0.935 0.243 1.188-0.163c0.273-0.44 0.083-0.869-0.371-1.151-0.449-0.279-0.923-0.262-1.196 0.178z"></path>
<path d="M24.021 25.083c0.143 0.151 0.342 0.18 0.627-0.091 0.343-0.326 0.368-0.552 0.133-0.84l0.416-0.395c0.359 0.419 0.401 0.977-0.227 1.574-0.461 0.438-0.97 0.588-1.497 0.034l-0.942-0.991c-0.14-0.147-0.246-0.193-0.398-0.018l-0.194-0.204c0.063-0.13 0.125-0.204 0.206-0.281 0.228-0.217 0.412-0.236 0.647-0.071l0.008-0.008c-0.044-0.308 0.072-0.659 0.395-0.965 0.424-0.403 0.918-0.406 1.251-0.056 0.434 0.457 0.231 0.921-0.194 1.519-0.264 0.367-0.421 0.594-0.231 0.794zM23.422 23.253c-0.355 0.337-0.433 0.745-0.111 1.084l0.298 0.314c0.023-0.115 0.143-0.323 0.305-0.553 0.281-0.415 0.339-0.664 0.138-0.876-0.182-0.192-0.397-0.189-0.63 0.032z"></path>
<path d="M21.959 27.496c-0.469 0.256-0.988 0.187-1.304-0.39l-0.953-1.743 0.523-0.286 0.872 1.595c0.186 0.341 0.448 0.48 0.804 0.285 0.4-0.219 0.524-0.601 0.319-0.976l-0.84-1.535 0.518-0.283 1.379 2.523-0.518 0.283-0.178-0.326-0.010 0.005c-0.025 0.27-0.179 0.611-0.613 0.848z"></path>
<path d="M20.145 28.701c0.155-0.050 0.351 0.005 0.413 0.197s-0.065 0.346-0.22 0.397c-0.166 0.054-0.354 0.003-0.417-0.19s0.058-0.35 0.224-0.404zM20.274 28.151l-0.562 0.182-0.888-2.735 0.562-0.182 0.887 2.735z"></path>
<path d="M16.736 27.841c0.059 0.287 0.289 0.615 0.791 0.551 0.575-0.073 0.758-0.596 0.689-1.132s-0.371-0.996-0.952-0.922c-0.502 0.064-0.642 0.434-0.624 0.755l-0.586 0.075c-0.040-0.664 0.406-1.215 1.148-1.31 0.854-0.109 1.485 0.434 1.599 1.327s-0.36 1.578-1.208 1.686c-0.742 0.095-1.288-0.317-1.444-0.956l0.586-0.075z"></path>
<path d="M11.036 28.715c0.36 0.13 0.512 0.136 0.609-0.175l0.094-0.301-0.505-0.158 0.144-0.462 0.505 0.158 0.712-2.283 0.569 0.178-0.712 2.283 0.392 0.122-0.144 0.462-0.392-0.122-0.109 0.349c-0.181 0.58-0.492 0.707-0.943 0.566-0.14-0.044-0.258-0.098-0.364-0.155l0.144-0.462z"></path>
<path d="M10.993 24.692c0.788 0.435 0.964 1.245 0.532 2.029s-1.212 1.067-2 0.632c-0.788-0.435-0.964-1.245-0.532-2.029s1.212-1.067 2-0.632zM10.759 25.116c-0.493-0.272-0.964-0.024-1.249 0.493-0.288 0.522-0.244 1.048 0.249 1.32s0.961 0.029 1.249-0.493c0.285-0.517 0.244-1.048-0.249-1.32z"></path>
<path d="M8.902 23.159c0.653 0.62 0.618 1.449 0.002 2.097s-1.442 0.725-2.095 0.105c-0.653-0.62-0.618-1.449-0.002-2.097s1.442-0.725 2.095-0.105zM8.569 23.509c-0.408-0.388-0.926-0.267-1.333 0.161-0.411 0.432-0.501 0.952-0.093 1.34s0.922 0.271 1.333-0.161c0.407-0.428 0.501-0.952 0.093-1.34z"></path>
<path d="M3.389 22.669l-0.304-0.506 3.448-2.072 0.304 0.506-0.285 0.171 0.006 0.010c0.247 0.029 0.58 0.157 0.809 0.538 0.38 0.632 0.169 1.395-0.642 1.882s-1.583 0.314-1.963-0.317c-0.229-0.381-0.195-0.729-0.085-0.973l-0.006-0.010-1.283 0.771zM6.901 21.478c-0.249-0.415-0.745-0.465-1.29-0.137-0.55 0.33-0.734 0.789-0.485 1.204 0.267 0.444 0.814 0.437 1.296 0.147s0.745-0.769 0.479-1.213z"></path>
<path d="M5.768 16.237c0.035 0.9-0.568 1.469-1.462 1.503s-1.539-0.487-1.574-1.386 0.568-1.469 1.462-1.504c0.894-0.035 1.539 0.487 1.574 1.386zM5.284 16.255c-0.022-0.562-0.477-0.837-1.067-0.815-0.596 0.023-1.023 0.332-1.001 0.895s0.472 0.838 1.067 0.815c0.59-0.023 1.023-0.332 1.002-0.895z"></path>
<path d="M3.042 12.923c0.018-0.1 0.036-0.171 0.062-0.252l0.548 0.098-0.002 0.011c-0.194 0.543 0.102 1.059 0.706 1.167l1.446 0.259-0.104 0.582-2.83-0.506 0.104-0.582 0.532 0.095 0.002-0.011c-0.328-0.213-0.53-0.489-0.463-0.86z"></path>
<path d="M4.051 10.203l0.226-0.546 2.474 1.025c0.764 0.316 0.91 0.919 0.598 1.673-0.316 0.764-0.891 1.019-1.362 0.891l0.228-0.551c0.255 0.045 0.51-0.069 0.688-0.5 0.189-0.457 0.078-0.777-0.4-0.976l-0.322-0.133-0.004 0.010c0.139 0.222 0.236 0.548 0.061 0.969-0.276 0.665-0.945 0.973-1.782 0.626-0.842-0.349-1.093-1.037-0.817-1.703 0.174-0.421 0.473-0.584 0.718-0.646l0.004-0.010-0.312-0.129zM5.835 11.777c0.183-0.442 0.002-0.828-0.56-1.060s-0.962-0.088-1.145 0.354c-0.198 0.478 0.059 0.871 0.553 1.076 0.489 0.202 0.954 0.109 1.152-0.369z"></path>
<path d="M6.325 8.036c-0.166-0.126-0.366-0.123-0.605 0.19-0.286 0.376-0.276 0.603 0.003 0.851l-0.348 0.457c-0.422-0.356-0.552-0.901-0.027-1.59 0.385-0.506 0.864-0.735 1.473-0.272l1.088 0.828c0.161 0.123 0.273 0.152 0.395-0.046l0.224 0.17c-0.042 0.138-0.091 0.221-0.159 0.311-0.191 0.251-0.369 0.299-0.627 0.173l-0.007 0.009c0.092 0.297 0.033 0.662-0.236 1.016-0.354 0.466-0.841 0.548-1.226 0.254-0.501-0.382-0.375-0.873-0.051-1.531 0.202-0.405 0.321-0.654 0.102-0.821zM7.207 9.747c0.297-0.389 0.309-0.805-0.063-1.088l-0.345-0.262c-0.004 0.117-0.090 0.341-0.213 0.595-0.211 0.454-0.229 0.71 0.004 0.887 0.21 0.16 0.422 0.123 0.616-0.132z"></path>
<path d="M7.935 5.343c0.42-0.33 0.943-0.347 1.35 0.171l1.226 1.562-0.469 0.368-1.122-1.43c-0.24-0.305-0.521-0.399-0.84-0.149-0.359 0.281-0.418 0.679-0.154 1.015l1.080 1.377-0.465 0.365-1.775-2.262 0.465-0.365 0.229 0.292 0.009-0.007c-0.019-0.271 0.076-0.632 0.466-0.938z"></path>
<path d="M9.554 3.834c-0.145 0.075-0.347 0.053-0.44-0.127s0.007-0.352 0.152-0.427c0.155-0.080 0.349-0.060 0.442 0.119s0 0.355-0.155 0.435zM9.517 4.399l0.524-0.272 1.323 2.553-0.524 0.272-1.323-2.553z"></path>
<path d="M13.060 4.122c-0.106-0.274-0.385-0.56-0.87-0.415-0.555 0.166-0.65 0.712-0.495 1.229s0.529 0.922 1.089 0.754c0.485-0.145 0.563-0.533 0.492-0.846l0.566-0.17c0.147 0.649-0.202 1.265-0.919 1.48-0.825 0.247-1.536-0.186-1.794-1.048s0.097-1.615 0.917-1.861c0.717-0.215 1.323 0.103 1.58 0.707l-0.566 0.17z"></path>
<path d="M18.518 2.329c-0.377-0.070-0.527-0.051-0.572 0.272l-0.044 0.312 0.524 0.073-0.067 0.479-0.524-0.073-0.331 2.368-0.591-0.082 0.331-2.368-0.407-0.057 0.067-0.479 0.407 0.057 0.051-0.362c0.084-0.602 0.37-0.778 0.838-0.712 0.145 0.020 0.271 0.055 0.385 0.093l-0.067 0.479z"></path>
<path d="M19.227 6.287c-0.849-0.3-1.155-1.071-0.856-1.915s1.021-1.25 1.87-0.95c0.849 0.3 1.155 1.071 0.856 1.915s-1.021 1.25-1.87 0.95zM19.388 5.83c0.53 0.188 0.954-0.134 1.152-0.691 0.199-0.562 0.070-1.074-0.461-1.261s-0.953 0.128-1.152 0.691c-0.197 0.557-0.070 1.074 0.461 1.261z"></path>
<path d="M21.506 7.43c-0.745-0.505-0.846-1.329-0.344-2.069s1.304-0.951 2.049-0.446c0.745 0.505 0.846 1.329 0.344 2.069s-1.304 0.951-2.049 0.446zM21.777 7.029c0.466 0.316 0.957 0.112 1.289-0.377 0.335-0.494 0.339-1.021-0.127-1.337s-0.954-0.117-1.289 0.377c-0.332 0.489-0.339 1.021 0.127 1.337z"></path>
<path d="M27.085 7.066l0.381 0.451-3.072 2.597-0.381-0.451 0.253-0.214-0.007-0.009c-0.248 0.011-0.598-0.062-0.885-0.402-0.476-0.563-0.39-1.35 0.332-1.96s1.512-0.564 1.988-0.001c0.287 0.339 0.31 0.689 0.24 0.946l0.007 0.009 1.143-0.966zM23.809 8.804c0.312 0.37 0.81 0.339 1.296-0.071 0.49-0.414 0.598-0.896 0.286-1.266-0.334-0.395-0.873-0.301-1.303 0.063s-0.613 0.879-0.278 1.274z"></path>
</symbol>
<symbol id="icon-discount" viewBox="0 0 32 32">
<path d="M32 16c0 8.837-7.163 16-16 16s-16-7.163-16-16c0-8.837 7.163-16 16-16s16 7.163 16 16z"></path>
<path d="M26.947 20.862l-0.233 0.63-4.293-1.582 0.233-0.63 0.354 0.13 0.005-0.012c-0.15-0.24-0.274-0.626-0.099-1.1 0.29-0.787 1.118-1.143 2.127-0.771s1.406 1.18 1.116 1.966c-0.175 0.475-0.508 0.693-0.802 0.769l-0.004 0.012 1.597 0.588zM23.389 18.597c-0.19 0.516 0.118 0.992 0.797 1.242 0.685 0.252 1.223 0.089 1.413-0.427 0.204-0.553-0.192-1.033-0.793-1.254s-1.213-0.113-1.418 0.439zM25.093 22.529c0.11-0.149 0.326-0.229 0.513-0.093s0.171 0.363 0.061 0.512c-0.117 0.16-0.325 0.238-0.511 0.102s-0.18-0.361-0.062-0.521zM24.845 21.936l-0.397 0.542-2.641-1.93 0.397-0.542 2.64 1.93zM21.828 23.302c-0.554 0.274-1.144 0.585-1.641-0.016-0.4-0.484-0.234-1.126 0.379-1.631 0.815-0.671 1.48-0.58 1.945-0.068l-0.504 0.415c-0.249-0.251-0.559-0.385-1.093 0.054-0.361 0.297-0.367 0.601-0.236 0.759 0.261 0.316 0.582 0.092 1.027-0.124 0.477-0.236 1.086-0.604 1.559-0.032 0.342 0.414 0.25 1.046-0.382 1.566-0.687 0.565-1.319 0.464-1.716 0.053l0.504-0.415c0.197 0.169 0.464 0.29 0.869-0.044 0.311-0.256 0.381-0.513 0.235-0.69-0.212-0.257-0.51-0.045-0.945 0.172zM18.35 25.162c0.132 0.307 0.462 0.62 1.007 0.435 0.624-0.212 0.708-0.836 0.51-1.417s-0.641-1.026-1.271-0.812c-0.545 0.186-0.617 0.629-0.523 0.982l-0.636 0.216c-0.196-0.731 0.176-1.445 0.982-1.719 0.927-0.315 1.755 0.148 2.085 1.117s-0.042 1.839-0.963 2.151c-0.805 0.274-1.509-0.062-1.828-0.738l0.637-0.216zM15.606 23.245c1.022 0.062 1.599 0.809 1.537 1.825s-0.724 1.687-1.747 1.625c-1.022-0.062-1.598-0.81-1.537-1.825s0.725-1.687 1.747-1.625zM15.573 23.795c-0.638-0.039-1.002 0.445-1.042 1.116-0.041 0.677 0.261 1.196 0.9 1.235s1.001-0.439 1.042-1.116c0.041-0.671-0.261-1.196-0.9-1.235zM10.771 25.275l-0.605-0.293 1.431-2.941 0.604 0.293-0.185 0.38 0.011 0.005c0.268-0.155 0.685-0.237 1.191 0.009 0.547 0.266 0.825 0.791 0.497 1.465l-0.988 2.032-0.61-0.297 0.905-1.859c0.193-0.397 0.149-0.731-0.266-0.932-0.466-0.226-0.903-0.090-1.116 0.348l-0.87 1.79zM7.833 22.957c-0.405-0.453-0.464-1.045 0.095-1.543l1.685-1.504 0.453 0.505-1.542 1.377c-0.33 0.294-0.416 0.62-0.108 0.963 0.346 0.386 0.802 0.425 1.165 0.101l1.485-1.326 0.449 0.501-2.439 2.178-0.449-0.5 0.315-0.281-0.008-0.010c-0.307 0.042-0.724-0.041-1.1-0.46zM6.447 19.376l0.253 0.56 1.617-0.728c0.339-0.153 0.306-0.334 0.103-0.72l0.502-0.226c0.085 0.109 0.163 0.236 0.237 0.399 0.221 0.49 0.121 0.858-0.509 1.141l-1.669 0.752 0.196 0.431-0.502 0.226-0.195-0.432-0.94 0.423-0.279-0.618 0.939-0.423-0.253-0.56 0.501-0.226zM4.494 12.647l0.146-0.656 4.467 0.994-0.146 0.656-0.368-0.082-0.003 0.013c0.181 0.217 0.355 0.584 0.245 1.077-0.182 0.818-0.955 1.283-2.004 1.049s-1.552-0.981-1.37-1.799c0.11-0.493 0.411-0.755 0.692-0.869l0.003-0.012-1.662-0.37zM8.323 14.417c0.119-0.537-0.251-0.967-0.956-1.124-0.713-0.158-1.223 0.076-1.343 0.613-0.128 0.574 0.329 0.997 0.953 1.136s1.218-0.050 1.346-0.625zM6.102 10.748c-0.089 0.163-0.293 0.27-0.495 0.161s-0.218-0.336-0.129-0.499c0.095-0.174 0.291-0.279 0.493-0.17s0.226 0.334 0.131 0.508zM6.428 11.303l0.321-0.59 2.875 1.559-0.321 0.59-2.875-1.559zM9.241 9.534c0.514-0.344 1.057-0.73 1.629-0.198 0.459 0.427 0.379 1.086-0.163 1.666-0.72 0.772-1.391 0.769-1.919 0.322l0.445-0.477c0.279 0.217 0.605 0.309 1.076-0.196 0.318-0.342 0.285-0.644 0.135-0.783-0.3-0.279-0.59-0.015-1.002 0.257-0.443 0.297-0.997 0.741-1.541 0.236-0.394-0.366-0.385-1.004 0.174-1.603 0.607-0.651 1.246-0.633 1.694-0.277l-0.445 0.477c-0.219-0.141-0.498-0.227-0.855 0.157-0.275 0.294-0.311 0.558-0.142 0.715 0.244 0.227 0.511-0.022 0.914-0.294z"></path>
<path d="M12.396 7.25c-0.172-0.286-0.542-0.552-1.057-0.294-0.59 0.294-0.589 0.924-0.314 1.473s0.774 0.93 1.37 0.633c0.515-0.258 0.526-0.707 0.386-1.044l0.601-0.3c0.293 0.698 0.021 1.456-0.74 1.836-0.876 0.437-1.758 0.092-2.218-0.823s-0.208-1.828 0.662-2.262c0.762-0.38 1.504-0.143 1.911 0.483l-0.601 0.3zM15.372 8.765c-1.021 0.075-1.692-0.589-1.767-1.604s0.492-1.769 1.514-1.843c1.021-0.075 1.693 0.589 1.767 1.604s-0.492 1.769-1.514 1.843zM15.332 8.217c0.638-0.046 0.933-0.575 0.883-1.245-0.050-0.677-0.418-1.15-1.057-1.104s-0.933 0.569-0.884 1.245c0.050 0.67 0.419 1.15 1.057 1.104zM19.919 6.106l0.638 0.21-1.027 3.105-0.638-0.21 0.133-0.401-0.012-0.004c-0.244 0.189-0.647 0.326-1.182 0.149-0.577-0.19-0.923-0.675-0.688-1.386l0.709-2.145 0.644 0.213-0.649 1.963c-0.139 0.419-0.051 0.745 0.387 0.889 0.492 0.163 0.907-0.031 1.060-0.493l0.625-1.89zM23.143 8.004c0.461 0.396 0.596 0.975 0.108 1.542l-1.473 1.713-0.515-0.442 1.348-1.567c0.288-0.335 0.331-0.669-0.019-0.969-0.394-0.338-0.851-0.316-1.168 0.052l-1.298 1.509-0.51-0.437 2.132-2.479 0.51 0.437-0.276 0.32 0.010 0.009c0.298-0.082 0.723-0.055 1.15 0.311zM24.983 11.342l-0.326-0.521-1.504 0.939c-0.315 0.196-0.258 0.372-0.005 0.727l-0.467 0.291c-0.108-0.107-0.203-0.225-0.283-0.354l-0.005-0.008c-0.286-0.456-0.236-0.834 0.351-1.2l1.553-0.969-0.251-0.402 0.467-0.291 0.252 0.402 0.874-0.546 0.36 0.575-0.874 0.545 0.326 0.521-0.467 0.291zM17.556 14.756c-2.8 0.622-3.453 2.541-4.101 4.15l0.588 0.205 0.295-0.715c0.149 0.053 0.305 0.093 0.417 0.093 3.422 0 4.355-5.289 4.355-5.289-0.311 0.622-2.489 0.7-4.044 1.011s-2.178 1.633-2.178 2.255c0 0.622 0.544 1.167 0.544 1.167 1.011-2.878 4.123-2.878 4.123-2.878z"></path>
</symbol>
    <symbol id="icon-organic-food" viewBox="0 0 32 32">
      <path fill="#fdc152" style="fill: var(--color1, #fdc152)"
        d="M32 16c0 8.837-7.163 16-16 16s-16-7.163-16-16c0-8.837 7.163-16 16-16s16 7.163 16 16z"></path>
      <path fill="#010101" style="fill: var(--color2, #010101)"
        d="M25.174 17.182c0.104-0.813 0.731-1.233 1.538-1.13s1.308 0.668 1.204 1.481c-0.104 0.812-0.731 1.233-1.538 1.13s-1.308-0.668-1.204-1.48zM25.611 17.237c-0.065 0.508 0.302 0.823 0.836 0.892 0.538 0.069 0.968-0.145 1.033-0.652s-0.298-0.822-0.836-0.892c-0.533-0.068-0.968 0.145-1.033 0.653zM27.137 20.516c-0.031 0.087-0.058 0.148-0.093 0.217l-0.478-0.169 0.003-0.010c0.255-0.458 0.065-0.965-0.461-1.152l-1.26-0.445 0.179-0.507 2.467 0.873-0.179 0.507-0.463-0.164-0.004 0.010c0.263 0.24 0.403 0.517 0.289 0.841zM25.82 22.819l-0.284 0.457-2.070-1.286c-0.639-0.397-0.682-0.96-0.29-1.59 0.397-0.639 0.951-0.784 1.355-0.599l-0.286 0.461c-0.223-0.078-0.468-0.013-0.692 0.348-0.238 0.383-0.185 0.686 0.215 0.935l0.27 0.167 0.005-0.009c-0.092-0.22-0.131-0.527 0.088-0.879 0.346-0.557 0.992-0.734 1.693-0.299 0.704 0.437 0.828 1.093 0.482 1.649-0.219 0.353-0.511 0.454-0.74 0.475l-0.005 0.009 0.261 0.162zM24.45 21.143c-0.23 0.37-0.124 0.743 0.346 1.035s0.851 0.221 1.081-0.149c0.249-0.4 0.075-0.791-0.338-1.047-0.409-0.254-0.84-0.238-1.089 0.162zM23.459 24.426c0.13 0.138 0.311 0.164 0.571-0.083 0.312-0.296 0.335-0.502 0.121-0.765l0.379-0.36c0.327 0.381 0.365 0.89-0.207 1.433-0.419 0.398-0.883 0.535-1.363 0.030l-0.857-0.902c-0.127-0.134-0.224-0.176-0.362-0.016l-0.177-0.186c0.058-0.118 0.114-0.186 0.188-0.256 0.208-0.197 0.375-0.215 0.588-0.065l0.007-0.007c-0.040-0.28 0.066-0.6 0.359-0.878 0.386-0.367 0.835-0.37 1.138-0.051 0.395 0.416 0.211 0.838-0.176 1.382-0.24 0.334-0.383 0.541-0.21 0.723zM22.915 22.76c-0.323 0.307-0.394 0.678-0.101 0.986l0.271 0.286c0.021-0.104 0.131-0.294 0.277-0.504 0.256-0.377 0.308-0.604 0.125-0.797-0.166-0.175-0.362-0.172-0.573 0.029zM21.582 26.621c-0.427 0.234-0.899 0.171-1.186-0.355l-0.867-1.586 0.476-0.26 0.794 1.451c0.17 0.31 0.408 0.436 0.731 0.26 0.364-0.199 0.477-0.547 0.29-0.888l-0.764-1.397 0.472-0.258 1.255 2.295-0.472 0.258-0.162-0.296-0.009 0.005c-0.023 0.246-0.163 0.556-0.558 0.772zM19.932 27.718c0.141-0.046 0.319 0.004 0.376 0.179s-0.059 0.316-0.2 0.361c-0.151 0.049-0.322 0.002-0.379-0.173s0.053-0.319 0.204-0.368zM20.049 27.217l-0.511 0.166-0.808-2.489 0.511-0.166 0.808 2.489zM16.83 26.935c0.054 0.261 0.263 0.56 0.72 0.501 0.523-0.067 0.689-0.542 0.627-1.030s-0.338-0.907-0.866-0.839c-0.457 0.059-0.585 0.395-0.568 0.687l-0.533 0.068c-0.036-0.604 0.37-1.105 1.045-1.192 0.777-0.099 1.351 0.395 1.455 1.208s-0.327 1.436-1.099 1.534c-0.676 0.086-1.172-0.289-1.314-0.869l0.533-0.068zM11.643 27.731c0.328 0.118 0.466 0.124 0.554-0.16l0.085-0.274-0.459-0.143 0.131-0.42 0.459 0.143 0.648-2.077 0.518 0.162-0.648 2.077 0.357 0.112-0.131 0.42-0.357-0.111-0.099 0.318c-0.164 0.528-0.447 0.643-0.858 0.515-0.128-0.041-0.238-0.089-0.341-0.146l0.010 0.005 0.131-0.42zM11.604 24.070c0.717 0.396 0.878 1.133 0.484 1.846s-1.102 0.971-1.82 0.575c-0.717-0.396-0.877-1.133-0.484-1.846s1.103-0.971 1.82-0.575zM11.391 24.455c-0.448-0.247-0.877-0.022-1.137 0.449-0.262 0.475-0.222 0.954 0.227 1.201s0.874 0.026 1.136-0.449c0.26-0.47 0.222-0.954-0.226-1.201z"></path>
      <path fill="#010101" style="fill: var(--color2, #010101)"
        d="M9.701 22.675c0.594 0.564 0.562 1.318 0.001 1.908s-1.312 0.66-1.906 0.095c-0.594-0.564-0.562-1.318-0.001-1.908s1.312-0.66 1.906-0.095zM9.398 22.994c-0.371-0.353-0.843-0.243-1.213 0.147-0.374 0.393-0.456 0.866-0.085 1.219s0.839 0.246 1.213-0.147c0.371-0.389 0.456-0.866 0.085-1.219z"></path>
      <path fill="#010101" style="fill: var(--color2, #010101)"
        d="M4.684 22.229l-0.277-0.461 3.138-1.885 0.277 0.461-0.259 0.156 0.005 0.009c0.225 0.026 0.528 0.143 0.736 0.49 0.346 0.575 0.154 1.27-0.584 1.713s-1.441 0.286-1.786-0.289c-0.208-0.347-0.178-0.664-0.078-0.885l-0.005-0.009-1.168 0.701zM7.88 21.145c-0.227-0.378-0.678-0.423-1.174-0.125-0.5 0.3-0.668 0.717-0.441 1.095 0.243 0.404 0.74 0.397 1.18 0.134s0.678-0.7 0.436-1.104zM6.849 16.375c0.032 0.819-0.517 1.337-1.331 1.368s-1.4-0.443-1.432-1.261c-0.032-0.819 0.517-1.337 1.331-1.368s1.401 0.443 1.432 1.262zM6.409 16.392c-0.020-0.512-0.434-0.762-0.971-0.741-0.542 0.021-0.931 0.302-0.911 0.814s0.429 0.762 0.971 0.741c0.538-0.020 0.931-0.302 0.911-0.814zM4.369 13.36c0.016-0.091 0.033-0.155 0.057-0.229l0.499 0.090-0.002 0.010c-0.177 0.494 0.093 0.963 0.642 1.062l1.316 0.235-0.095 0.529-2.575-0.461 0.095-0.529 0.484 0.086 0.002-0.010c-0.298-0.194-0.482-0.445-0.421-0.783zM5.286 10.885l0.206-0.497 2.252 0.933c0.695 0.288 0.828 0.836 0.544 1.522-0.288 0.695-0.811 0.928-1.239 0.811l0.208-0.501c0.232 0.041 0.464-0.063 0.627-0.456 0.172-0.416 0.071-0.707-0.364-0.888l-0.293-0.122-0.004 0.010c0.127 0.202 0.214 0.499 0.056 0.882-0.251 0.605-0.86 0.885-1.621 0.57-0.766-0.317-0.994-0.944-0.744-1.549 0.159-0.383 0.431-0.531 0.654-0.588l0.004-0.010-0.284-0.117zM6.91 12.317c0.166-0.402 0.001-0.753-0.509-0.965s-0.876-0.080-1.042 0.322c-0.18 0.435 0.054 0.793 0.503 0.979 0.445 0.184 0.868 0.099 1.048-0.336zM7.356 8.912c-0.15-0.115-0.333-0.112-0.55 0.173-0.26 0.342-0.251 0.549 0.003 0.774l-0.316 0.415c-0.384-0.324-0.502-0.82-0.024-1.447 0.35-0.46 0.786-0.669 1.34-0.247l0.99 0.754c0.147 0.112 0.249 0.138 0.36-0.042l0.204 0.155c-0.031 0.108-0.081 0.203-0.146 0.284l0.001-0.002c-0.174 0.228-0.336 0.272-0.571 0.158l-0.006 0.008c0.084 0.27 0.030 0.602-0.214 0.924-0.323 0.424-0.766 0.498-1.116 0.231-0.456-0.347-0.341-0.794-0.046-1.393 0.184-0.368 0.292-0.595 0.093-0.747zM8.158 10.47c0.27-0.355 0.281-0.732-0.057-0.99l-0.314-0.239c-0.004 0.106-0.082 0.31-0.194 0.541-0.192 0.413-0.208 0.646 0.003 0.807 0.192 0.146 0.384 0.112 0.561-0.12zM8.821 6.462c0.383-0.3 0.859-0.316 1.228 0.156l1.116 1.422-0.427 0.335-1.021-1.301c-0.218-0.278-0.474-0.363-0.764-0.136-0.326 0.256-0.381 0.618-0.141 0.924l0.983 1.253-0.423 0.332-1.615-2.058 0.423-0.332 0.209 0.266 0.008-0.006c-0.018-0.246 0.069-0.575 0.424-0.853zM10.294 5.089c-0.132 0.068-0.315 0.048-0.4-0.115s0.006-0.321 0.139-0.389c0.141-0.073 0.317-0.055 0.402 0.108s0 0.323-0.141 0.396zM10.26 5.603l0.477-0.247 1.204 2.323-0.477 0.247-1.204-2.323zM13.485 5.351c-0.096-0.249-0.351-0.51-0.792-0.378-0.505 0.151-0.592 0.648-0.451 1.119s0.481 0.839 0.991 0.686c0.442-0.132 0.512-0.485 0.448-0.77l0.515-0.154c0.134 0.59-0.184 1.151-0.836 1.347-0.75 0.225-1.398-0.169-1.633-0.954s0.089-1.47 0.834-1.693c0.652-0.196 1.204 0.093 1.438 0.643l-0.515 0.155zM18.451 3.719c-0.342-0.063-0.479-0.046-0.52 0.248l-0.040 0.284 0.477 0.067-0.061 0.436-0.477-0.067-0.301 2.155-0.538-0.075 0.301-2.155-0.37-0.052 0.061-0.436 0.37 0.052 0.046-0.33c0.077-0.548 0.337-0.708 0.763-0.648 0.132 0.018 0.246 0.050 0.35 0.085l-0.061 0.436zM19.096 7.321c-0.772-0.273-1.051-0.975-0.779-1.742s0.929-1.138 1.702-0.864c0.772 0.273 1.051 0.975 0.779 1.742s-0.929 1.138-1.701 0.864zM19.243 6.906c0.483 0.171 0.868-0.122 1.048-0.628 0.181-0.511 0.063-0.977-0.419-1.148s-0.867 0.117-1.048 0.628c-0.179 0.507-0.063 0.977 0.419 1.148z"></path>
      <path fill="#010101" style="fill: var(--color2, #010101)"
        d="M21.17 8.361c-0.678-0.46-0.77-1.209-0.313-1.883s1.187-0.865 1.865-0.405c0.678 0.46 0.77 1.209 0.313 1.883s-1.187 0.865-1.865 0.405zM21.417 7.997c0.424 0.287 0.871 0.102 1.173-0.343 0.305-0.449 0.308-0.929-0.115-1.216s-0.868-0.107-1.173 0.343c-0.302 0.445-0.308 0.929 0.115 1.217zM26.247 8.030l0.347 0.411-2.796 2.363-0.347-0.411 0.23-0.195-0.006-0.008c-0.226 0.010-0.544-0.057-0.805-0.365-0.433-0.512-0.355-1.229 0.302-1.784s1.376-0.513 1.809-0.001c0.261 0.309 0.282 0.627 0.219 0.861l0.006 0.008 1.040-0.879zM23.267 9.612c0.284 0.336 0.737 0.309 1.179-0.065 0.446-0.377 0.544-0.815 0.26-1.152-0.304-0.36-0.795-0.274-1.186 0.057s-0.557 0.8-0.253 1.159zM17.6 14.72c-2.88 0.64-3.552 2.614-4.218 4.269l0.605 0.211 0.304-0.736c0.154 0.054 0.314 0.096 0.429 0.096 3.52 0 4.48-5.44 4.48-5.44-0.32 0.64-2.56 0.72-4.16 1.040s-2.24 1.68-2.24 2.32 0.56 1.2 0.56 1.2c1.040-2.96 4.24-2.96 4.24-2.96z"></path>
    </symbol>
    <symbol id="icon-discount" viewBox="0 0 32 32">
      <path fill="#6d8434" style="fill: var(--color3, #6d8434)"
        d="M32 16c0 8.837-7.163 16-16 16s-16-7.163-16-16c0-8.837 7.163-16 16-16s16 7.163 16 16z"></path>
      <path fill="#fafafa" style="fill: var(--color4, #fafafa)"
        d="M26.947 20.862l-0.233 0.63-4.293-1.582 0.233-0.63 0.354 0.13 0.005-0.012c-0.15-0.24-0.274-0.626-0.099-1.1 0.29-0.787 1.118-1.143 2.127-0.771s1.406 1.18 1.116 1.966c-0.175 0.475-0.508 0.693-0.802 0.769l-0.004 0.012 1.597 0.588zM23.389 18.597c-0.19 0.516 0.118 0.992 0.797 1.242 0.685 0.252 1.223 0.089 1.413-0.427 0.204-0.553-0.192-1.033-0.793-1.254s-1.213-0.113-1.418 0.439zM25.093 22.529c0.11-0.149 0.326-0.229 0.513-0.093s0.171 0.363 0.061 0.512c-0.117 0.16-0.325 0.238-0.511 0.102s-0.18-0.361-0.062-0.521zM24.845 21.936l-0.397 0.542-2.641-1.93 0.397-0.542 2.64 1.93zM21.828 23.302c-0.554 0.274-1.144 0.585-1.641-0.016-0.4-0.484-0.234-1.126 0.379-1.631 0.815-0.671 1.48-0.58 1.945-0.068l-0.504 0.415c-0.249-0.251-0.559-0.385-1.093 0.054-0.361 0.297-0.367 0.601-0.236 0.759 0.261 0.316 0.582 0.092 1.027-0.124 0.477-0.236 1.086-0.604 1.559-0.032 0.342 0.414 0.25 1.046-0.382 1.566-0.687 0.565-1.319 0.464-1.716 0.053l0.504-0.415c0.197 0.169 0.464 0.29 0.869-0.044 0.311-0.256 0.381-0.513 0.235-0.69-0.212-0.257-0.51-0.045-0.945 0.172zM18.35 25.162c0.132 0.307 0.462 0.62 1.007 0.435 0.624-0.212 0.708-0.836 0.51-1.417s-0.641-1.026-1.271-0.812c-0.545 0.186-0.617 0.629-0.523 0.982l-0.636 0.216c-0.196-0.731 0.176-1.445 0.982-1.719 0.927-0.315 1.755 0.148 2.085 1.117s-0.042 1.839-0.963 2.151c-0.805 0.274-1.509-0.062-1.828-0.738l0.637-0.216zM15.606 23.245c1.022 0.062 1.599 0.809 1.537 1.825s-0.724 1.687-1.747 1.625c-1.022-0.062-1.598-0.81-1.537-1.825s0.725-1.687 1.747-1.625zM15.573 23.795c-0.638-0.039-1.002 0.445-1.042 1.116-0.041 0.677 0.261 1.196 0.9 1.235s1.001-0.439 1.042-1.116c0.041-0.671-0.261-1.196-0.9-1.235zM10.771 25.275l-0.605-0.293 1.431-2.941 0.604 0.293-0.185 0.38 0.011 0.005c0.268-0.155 0.685-0.237 1.191 0.009 0.547 0.266 0.825 0.791 0.497 1.465l-0.988 2.032-0.61-0.297 0.905-1.859c0.193-0.397 0.149-0.731-0.266-0.932-0.466-0.226-0.903-0.090-1.116 0.348l-0.87 1.79zM7.833 22.957c-0.405-0.453-0.464-1.045 0.095-1.543l1.685-1.504 0.453 0.505-1.542 1.377c-0.33 0.294-0.416 0.62-0.108 0.963 0.346 0.386 0.802 0.425 1.165 0.101l1.485-1.326 0.449 0.501-2.439 2.178-0.449-0.5 0.315-0.281-0.008-0.010c-0.307 0.042-0.724-0.041-1.1-0.46zM6.447 19.376l0.253 0.56 1.617-0.728c0.339-0.153 0.306-0.334 0.103-0.72l0.502-0.226c0.085 0.109 0.163 0.236 0.237 0.399 0.221 0.49 0.121 0.858-0.509 1.141l-1.669 0.752 0.196 0.431-0.502 0.226-0.195-0.432-0.94 0.423-0.279-0.618 0.939-0.423-0.253-0.56 0.501-0.226zM4.494 12.647l0.146-0.656 4.467 0.994-0.146 0.656-0.368-0.082-0.003 0.013c0.181 0.217 0.355 0.584 0.245 1.077-0.182 0.818-0.955 1.283-2.004 1.049s-1.552-0.981-1.37-1.799c0.11-0.493 0.411-0.755 0.692-0.869l0.003-0.012-1.662-0.37zM8.323 14.417c0.119-0.537-0.251-0.967-0.956-1.124-0.713-0.158-1.223 0.076-1.343 0.613-0.128 0.574 0.329 0.997 0.953 1.136s1.218-0.050 1.346-0.625zM6.102 10.748c-0.089 0.163-0.293 0.27-0.495 0.161s-0.218-0.336-0.129-0.499c0.095-0.174 0.291-0.279 0.493-0.17s0.226 0.334 0.131 0.508zM6.428 11.303l0.321-0.59 2.875 1.559-0.321 0.59-2.875-1.559zM9.241 9.534c0.514-0.344 1.057-0.73 1.629-0.198 0.459 0.427 0.379 1.086-0.163 1.666-0.72 0.772-1.391 0.769-1.919 0.322l0.445-0.477c0.279 0.217 0.605 0.309 1.076-0.196 0.318-0.342 0.285-0.644 0.135-0.783-0.3-0.279-0.59-0.015-1.002 0.257-0.443 0.297-0.997 0.741-1.541 0.236-0.394-0.366-0.385-1.004 0.174-1.603 0.607-0.651 1.246-0.633 1.694-0.277l-0.445 0.477c-0.219-0.141-0.498-0.227-0.855 0.157-0.275 0.294-0.311 0.558-0.142 0.715 0.244 0.227 0.511-0.022 0.914-0.294z"></path>
      <path fill="#fafafa" style="fill: var(--color4, #fafafa)"
        d="M12.396 7.25c-0.172-0.286-0.542-0.552-1.057-0.294-0.59 0.294-0.589 0.924-0.314 1.473s0.774 0.93 1.37 0.633c0.515-0.258 0.526-0.707 0.386-1.044l0.601-0.3c0.293 0.698 0.021 1.456-0.74 1.836-0.876 0.437-1.758 0.092-2.218-0.823s-0.208-1.828 0.662-2.262c0.762-0.38 1.504-0.143 1.911 0.483l-0.601 0.3zM15.372 8.765c-1.021 0.075-1.692-0.589-1.767-1.604s0.492-1.769 1.514-1.843c1.021-0.075 1.693 0.589 1.767 1.604s-0.492 1.769-1.514 1.843zM15.332 8.217c0.638-0.046 0.933-0.575 0.883-1.245-0.050-0.677-0.418-1.15-1.057-1.104s-0.933 0.569-0.884 1.245c0.050 0.67 0.419 1.15 1.057 1.104zM19.919 6.106l0.638 0.21-1.027 3.105-0.638-0.21 0.133-0.401-0.012-0.004c-0.244 0.189-0.647 0.326-1.182 0.149-0.577-0.19-0.923-0.675-0.688-1.386l0.709-2.145 0.644 0.213-0.649 1.963c-0.139 0.419-0.051 0.745 0.387 0.889 0.492 0.163 0.907-0.031 1.060-0.493l0.625-1.89zM23.143 8.004c0.461 0.396 0.596 0.975 0.108 1.542l-1.473 1.713-0.515-0.442 1.348-1.567c0.288-0.335 0.331-0.669-0.019-0.969-0.394-0.338-0.851-0.316-1.168 0.052l-1.298 1.509-0.51-0.437 2.132-2.479 0.51 0.437-0.276 0.32 0.010 0.009c0.298-0.082 0.723-0.055 1.15 0.311zM24.983 11.342l-0.326-0.521-1.504 0.939c-0.315 0.196-0.258 0.372-0.005 0.727l-0.467 0.291c-0.108-0.107-0.203-0.225-0.283-0.354l-0.005-0.008c-0.286-0.456-0.236-0.834 0.351-1.2l1.553-0.969-0.251-0.402 0.467-0.291 0.252 0.402 0.874-0.546 0.36 0.575-0.874 0.545 0.326 0.521-0.467 0.291zM17.556 14.756c-2.8 0.622-3.453 2.541-4.101 4.15l0.588 0.205 0.295-0.715c0.149 0.053 0.305 0.093 0.417 0.093 3.422 0 4.355-5.289 4.355-5.289-0.311 0.622-2.489 0.7-4.044 1.011s-2.178 1.633-2.178 2.255c0 0.622 0.544 1.167 0.544 1.167 1.011-2.878 4.123-2.878 4.123-2.878z"></path>
    </symbol>
    <symbol id="icon-Food-Boutique" viewBox="0 0 227 32">
      <path
        d="M0 22.964c1.711-0.209 2.653-0.977 2.653-2.339v-14.208c0-1.361-0.943-2.164-2.653-2.339v-1.396h17.734c0.314 0 0.454 0.105 0.489 0.349 0.105 1.047 0.175 2.095 0.733 4.643h-0.873c-1.222-2.129-2.269-3.247-4.329-3.247h-2.967c-1.571 0-2.234 0.873-2.234 2.269v3.665c0 1.396 0.663 2.164 2.234 2.164h1.396c2.828 0 3.351-0.663 3.631-2.234h0.768v6.214h-0.768c-0.279-1.466-0.803-2.199-3.631-2.199h-1.396c-1.571 0-2.234 0.768-2.234 2.164v4.154c0 1.361 0.943 2.129 3.002 2.339v1.396h-11.555v-1.396zM27.767 24.57c-4.295 0-8.659-2.583-8.659-8.239 0-5.62 4.364-8.029 8.553-8.029 4.329 0 8.657 2.583 8.657 8.239 0 5.62-4.329 8.029-8.553 8.029zM24.694 14.796c0 4.329 1.431 8.169 3.665 8.169 1.361 0 2.374-1.361 2.374-4.957 0-4.294-1.361-8.134-3.665-8.134-1.396 0-2.374 1.396-2.374 4.922zM46.534 24.57c-4.294 0-8.657-2.583-8.657-8.239 0-5.62 4.364-8.029 8.553-8.029 4.329 0 8.657 2.583 8.657 8.239 0 5.62-4.329 8.029-8.553 8.029zM43.462 14.796c0 4.329 1.431 8.169 3.665 8.169 1.361 0 2.374-1.361 2.374-4.957 0-4.294-1.361-8.134-3.665-8.134-1.396 0-2.374 1.396-2.374 4.922zM63.312 24.57c-3.281 0-6.668-2.688-6.668-7.855 0-5.551 3.805-8.413 7.505-8.413 3.84 0 4.852 3.002 4.852-0.524v-2.095c0-1.641-0.908-1.92-2.199-1.815v-1.361l5.69-0.943c1.187-0.175 1.745 0.349 1.745 1.396v17.839c0 1.152 0.454 1.92 1.466 1.501v0.768c-0.489 1.187-1.745 1.501-2.828 1.501-1.187 0-2.688-0.384-3.107-1.431-0.279-0.663-0.593-1.012-1.117-1.012-0.698 0-2.095 2.444-5.341 2.444zM62.265 14.9c0 3.456 1.536 6.842 3.77 6.842 1.361 0 2.967-0.977 2.967-3.91v-1.641c0-4.538-2.129-6.319-3.875-6.319-1.78 0-2.863 2.199-2.863 5.027zM83.031 22.964c1.711-0.209 2.653-0.977 2.653-2.339v-14.173c0-1.396-0.943-2.199-2.653-2.374v-1.396h10.787c6.842 0 10.228 1.641 10.228 5.167 0 1.99-1.152 3.945-5.132 4.573 4.468 0.628 6.388 2.723 6.388 5.69 0 4.049-3.596 6.249-8.483 6.249-2.793 0-8.727-0.873-13.789 0v-1.396zM91.584 21.149c0 0.908 0.559 1.327 1.571 1.327h1.222c2.653 0 4.643-1.012 4.643-4.399 0-3.281-2.025-4.713-5.865-4.713-0.908 0-1.571 0.698-1.571 2.095v5.69zM91.584 9.594c0 1.396 0.663 2.095 2.234 2.095h0.908c2.409 0 3.037-1.885 3.037-3.491 0-2.444-1.327-3.805-3.596-3.805h-0.349c-1.571 0-2.234 0.733-2.234 2.129v3.072zM115.536 24.57c-4.294 0-8.657-2.583-8.657-8.239 0-5.62 4.364-8.029 8.553-8.029 4.329 0 8.657 2.583 8.657 8.239 0 5.62-4.329 8.029-8.553 8.029zM112.464 14.796c0 4.329 1.431 8.169 3.665 8.169 1.361 0 2.374-1.361 2.374-4.957 0-4.294-1.361-8.134-3.665-8.134-1.396 0-2.374 1.396-2.374 4.922zM131.677 24.57c-2.444 0-5.097-1.012-5.097-6.493v-5.551c0-1.606-0.908-1.885-2.199-1.85v-1.361l5.69-0.943c1.187-0.175 1.745 0.349 1.745 1.396v7.471c0 2.444 1.012 4.189 2.897 4.189 1.92 0 2.897-1.745 2.897-4.189v-4.713c0-1.606-0.908-1.885-2.199-1.85v-1.361l5.655-0.943c1.222-0.175 1.78 0.349 1.78 1.396v11.031c0 1.152 0.454 1.92 1.466 1.501v0.768c-0.489 1.187-1.745 1.501-2.932 1.501-2.513 0-3.212-1.571-3.386-2.339-0.105-0.489-0.384-0.733-0.628-0.733s-0.419 0.209-0.593 0.454c-0.977 1.327-2.339 2.618-5.097 2.618zM152.495 24.535c-3.212 0-5.167-1.78-5.167-5.167v-7.645c0-1.222-0.279-1.466-1.082-1.466h-1.571v-1.117c2.897-0.663 4.294-1.99 5.481-3.91 0.279-0.454 0.524-0.593 0.977-0.593h0.628c0.524 0 0.838 0.314 0.838 0.838l-0.035 2.164c0 0.768 0.384 0.977 2.164 0.977h2.269v1.85l-2.269-0.14c-1.78-0.105-2.164 0.209-2.164 1.466v7.401c0 1.92 0.209 3.212 1.92 3.212 0.454 0 1.152-0.070 1.815-0.559 0.454 0.559 0.628 1.047 0.175 1.466-0.803 0.698-2.234 1.222-3.98 1.222zM158.406 22.999c1.606-0.105 2.199-0.628 2.199-2.513v-7.994c0-1.641-0.908-1.92-2.164-1.815v-1.361l5.655-0.943c1.187-0.175 1.745 0.349 1.745 1.396v10.717c0 1.885 0.593 2.409 2.164 2.513v1.361h-9.6v-1.361zM159.767 3.974c0-1.676 1.396-2.967 3.037-2.967 1.606 0 2.967 1.292 2.967 2.967s-1.361 2.967-2.967 2.967c-1.641 0-3.037-1.292-3.037-2.967zM178.431 29.667c1.99-0.14 2.583-0.663 2.583-2.409v-3.735c0-0.628-0.314-0.838-0.628-0.838-0.175 0-0.349 0.070-0.489 0.209-0.698 0.698-2.199 1.676-4.399 1.676-3.596 0-6.912-2.653-6.912-7.785 0-5.585 3.875-8.483 7.889-8.483 3.491 0 4.957 2.129 6.249 2.129 1.222 0 1.711-2.095 2.688-2.095 0.628 0 0.838 0.349 0.838 0.838v18.083c0 1.745 0.593 2.269 2.164 2.409v1.327h-9.984v-1.327zM174.207 14.865c0 3.456 1.466 6.877 3.91 6.877 1.327 0 2.863-0.977 2.897-4.887-0.035-5.236-2.199-6.982-3.945-6.982-1.885 0-2.863 2.199-2.863 4.992zM195.191 24.57c-2.444 0-5.097-1.012-5.097-6.493v-5.551c0-1.606-0.908-1.885-2.199-1.85v-1.361l5.69-0.943c1.187-0.175 1.745 0.349 1.745 1.396v7.471c0 2.444 1.012 4.189 2.897 4.189 1.92 0 2.897-1.745 2.897-4.189v-4.713c0-1.606-0.908-1.885-2.199-1.85v-1.361l5.655-0.943c1.222-0.175 1.78 0.349 1.78 1.396v11.031c0 1.152 0.454 1.92 1.466 1.501v0.768c-0.489 1.187-1.745 1.501-2.932 1.501-2.513 0-3.212-1.571-3.386-2.339-0.105-0.489-0.384-0.733-0.628-0.733s-0.419 0.209-0.593 0.454c-0.977 1.327-2.339 2.618-5.097 2.618zM217.917 24.57c-4.364 0-8.692-2.513-8.692-7.994 0-5.725 4.678-8.273 9.007-8.273 3.7 0 6.703 1.85 6.703 4.922 0 3.142-3.037 3.316-6.109 3.561l-2.723 0.209c-0.593 0.035-0.908 0.314-0.908 1.117 0 2.583 2.793 3.735 5.097 3.735 1.222 0 2.897-0.349 4.154-1.78l1.047 0.943c-0.663 1.361-3.491 3.561-7.575 3.561zM214.95 14.132c0 1.012 0.244 1.536 1.152 1.501l1.257-0.14c2.409-0.244 2.897-0.873 2.897-2.234 0-1.676-0.698-3.351-2.513-3.351-2.269 0-2.793 2.548-2.793 4.224z"></path>
    </symbol>
    <symbol id="icon-logo" viewBox="0 0 32 32">
      <path d="M17.487 4.624a5.36 5.36 0 0 0-1.817-1.707c-2.011-1.153-4.601-.951-6.992.388C4.239 5.792 1.333 10.466 1.333 16c0 7.387 5.347 13.351 12.329 14.48a14.67 14.67 0 0 0 2.337.187 14.625 14.625 0 0 0 10.426-4.32 14.613 14.613 0 0 0 4.24-10.46c-.031-2.576-1.064-5.737-2.697-8.264-1.627-2.517-4.128-4.811-7.236-4.781-1.517.003-2.553.837-3.245 1.784v-.001zm8.873 5.526a6.332 6.332 0 0 0-1.684-.044l-1.547-2.6-2.291 1.36 1.189 2a9.055 9.055 0 0 0-1.42.833 7.286 7.286 0 0 0-.024-.077c-.356-1.08-1.044-1.967-1.961-2.848l.005-.027c.092-.431.239-.987.459-1.527.497-1.221 1.075-1.716 1.653-1.716h.015c1.721-.019 3.515 1.303 4.975 3.561.227.351.437.712.632 1.083l-.001.001zm-8.215 3.996c-.44.011-.892.06-1.333.156a5.013 5.013 0 0 0-1.416-1.527c-1.053-.74-2.496-1.107-4.056-.524a18.259 18.259 0 0 0-.432-.241l4.311-4.225-1.867-1.904-5.113 5.012c-1.08-.313-2.089-.425-2.996-.3a11.607 11.607 0 0 1 4.74-4.963c1.819-1.019 3.383-.963 4.361-.401.933.535 1.708 1.748 1.513 3.916l-.06.671.504.447c1.096.969 1.552 1.596 1.749 2.195.139.42.184.928.095 1.689zm-3.746 1.34c-1.139.953-1.903 2.291-2.347 3.736l-3.965-4.353-1.972 1.797 5.451 5.984c-.007 1.589.197 3.216.493 4.687A11.933 11.933 0 0 1 3.999 16c0-1.387.385-2.143.839-2.473.428-.315 1.368-.572 3.293.139.696.257 1.501.652 2.423 1.225l.669.416.688-.387c.831-.467 1.465-.301 1.952.04.213.149.396.336.536.527zm2.353 12.49 9.723-10.716-1.975-1.792-3.909 4.308.009-1.352-2.667-.019-.031 4.333-3.311 3.649c-.251-1.361-.4-2.824-.352-4.196.085-2.34 1.02-4.263 2.403-5.024.573-.316 1.585-.44 2.385-.299l1.187.207.327-1.159c.171-.604.623-1.251 1.329-1.827a6.365 6.365 0 0 1 2.445-1.221c1.068-.261 1.979-.125 2.579.288.524.36 1.051 1.096 1.1 2.605v.024l.004.213a11.947 11.947 0 0 1-11.246 11.976z"/>
    </symbol>
    <symbol id="icon-basket" viewBox="0 0 32 32">
      <path d="M4.801 1.6a1.6 1.6 0 0 0 0 3.2h1.952l.488 1.955.016.067L9.43 15.51l-1.429 1.427c-2.016 2.016-.589 5.462 2.262 5.462h13.738a1.6 1.6 0 0 0 0-3.2H10.263l1.6-1.6h10.538a1.602 1.602 0 0 0 1.431-.884l4.8-9.6a1.602 1.602 0 0 0-1.43-2.315H10.05l-.496-1.989a1.601 1.601 0 0 0-1.552-1.212h-3.2zm20.8 24.8a2.4 2.4 0 1 1-4.799 0 2.4 2.4 0 0 1 4.799 0zm-15.2 2.4a2.4 2.4 0 1 0 0-4.799 2.4 2.4 0 0 0 0 4.799z"/>
    </symbol>
    <symbol id="icon-leaf" viewBox="0 0 32 32">
      <path d="M22.667 10.667c-12 2.667-14.8 10.893-17.573 17.787l2.52.88 1.267-3.067c.64.227 1.307.4 1.787.4C25.335 26.667 29.335 4 29.335 4c-1.333 2.667-10.667 3-17.333 4.333s-9.333 7-9.333 9.667 2.333 5 2.333 5c4.333-12.333 17.667-12.333 17.667-12.333z"/>
    </symbol>
    <symbol id="icon-facebook" viewBox="0 0 32 32">
      <path d="M19.519 4.64h.96v3.6h-1.2c-.48 0-.96 0-1.2.24s-.24.48-.24 1.04v1.28h2.64v3.04h-2.64v13.2h-4.08V13.76h-2.16v-3.04h2.16V9.68c0-1.76.24-3.04.72-3.6.72-1.04 2.16-1.52 4.32-1.52.24.08.48.08.72.08z"/>
    </symbol>
    <symbol id="icon-instagram" viewBox="0 0 32 32">
      <path d="M28.718 10.756a9.264 9.264 0 0 0-.596-3.145 6.547 6.547 0 0 0-3.743-3.737 9.42 9.42 0 0 0-3.108-.596c-1.367-.061-1.801-.078-5.273-.078s-3.916 0-5.274.078a9.418 9.418 0 0 0-3.106.596 6.541 6.541 0 0 0-3.743 3.737 9.288 9.288 0 0 0-.596 3.101c-.061 1.367-.08 1.8-.08 5.265s0 3.909.08 5.265a9.335 9.335 0 0 0 .596 3.104 6.548 6.548 0 0 0 3.744 3.735 9.37 9.37 0 0 0 3.106.639c1.369.061 1.803.079 5.274.079s3.917 0 5.274-.079a9.362 9.362 0 0 0 3.108-.595 6.555 6.555 0 0 0 3.743-3.737 9.346 9.346 0 0 0 .596-3.104c.061-1.365.08-1.798.08-5.265-.003-3.466-.003-3.906-.082-5.264zM15.991 22.531c-3.631 0-6.572-2.936-6.572-6.561s2.941-6.561 6.572-6.561c3.628 0 6.572 2.936 6.572 6.561s-2.944 6.561-6.572 6.561zm6.833-11.835a1.53 1.53 0 1 1 0-3.06 1.53 1.53 0 1 1 0 3.06z"/>
      <path d="M15.991 19.976a4.004 4.004 0 1 0 0-8.009 4.004 4.004 0 0 0 0 8.009z"/>
    </symbol>
    <symbol id="icon-youtube" viewBox="0 0 32 32">
      <path d="M24.241 6c-1.36-.08-4.16-.16-8.4-.16h-.56c-4.08 0-6.8.08-8.16.24-1.84.16-3.12.64-3.84 1.28-.64.56-1.12 1.6-1.28 2.96-.08.88-.16 2.72-.16 5.52v.4c0 2.64.08 4.48.24 5.36.24 1.28.64 2.24 1.44 2.8.8.64 2.16 1.04 4.08 1.2 1.36.08 4.16.16 8.4.16h.56c4.08 0 6.8-.08 8.16-.24 1.84-.16 3.12-.64 3.84-1.28.64-.56 1.12-1.6 1.28-2.96.08-.88.16-2.72.16-5.52v-.4c0-2.64-.08-4.48-.24-5.36-.24-1.28-.64-2.24-1.44-2.8-.8-.64-2.16-1.04-4.08-1.2zm-3.12 9.84-8.8 5.28V10.56l8.8 5.28z"/>
    </symbol>
    <symbol id="icon-loupe" viewBox="0 0 32 32">
      <path d="M20.667 18.667h-1.053l-.373-.36a8.625 8.625 0 0 0 2.093-5.64 8.668 8.668 0 0 0-5.35-8.007A8.66 8.66 0 0 0 6.54 6.539a8.67 8.67 0 0 0-1.879 9.444 8.671 8.671 0 0 0 8.007 5.35 8.63 8.63 0 0 0 5.64-2.093l.36.373v1.053l6.667 6.653 1.987-1.987-6.653-6.667zm-8 0c-3.32 0-6-2.68-6-6s2.68-6 6-6 6 2.68 6 6-2.68 6-6 6z"/>
    </symbol>
    <symbol id="icon-close" viewBox="0 0 32 32">
      <path
        d="M25 9.093 22.907 7 16 13.907 9.093 7 7 9.093 13.907 16 7 22.907 9.093 25 16 18.093 22.907 25 25 22.907 18.093 16 25 9.093z" />
</symbol>
    <symbol id="icon-check" viewBox="0 0 24 24">
<path d="M19.293 5.293l-10.293 10.293-4.293-4.293c-0.391-0.391-1.024-0.391-1.414 0s-0.391 1.024 0 1.414l5 5c0.391 0.391 1.024 0.391 1.414 0l11-11c0.391-0.391 0.391-1.024 0-1.414s-1.024-0.391-1.414 0z"></path>
</symbol>
    <symbol id="icon-chevron-down" viewBox="0 0 24 24">
<path d="M5.293 9.707l6 6c0.391 0.391 1.024 0.391 1.414 0l6-6c0.391-0.391 0.391-1.024 0-1.414s-1.024-0.391-1.414 0l-5.293 5.293-5.293-5.293c-0.391-0.391-1.024-0.391-1.414 0s-0.391 1.024 0 1.414z"></path>
</symbol>
   <symbol id="icon-chevron-left" viewBox="0 0 24 24">
<path d="M15.707 17.293l-5.293-5.293 5.293-5.293c0.391-0.391 0.391-1.024 0-1.414s-1.024-0.391-1.414 0l-6 6c-0.391 0.391-0.391 1.024 0 1.414l6 6c0.391 0.391 1.024 0.391 1.414 0s0.391-1.024 0-1.414z"></path>
</symbol>
    <symbol id="icon-chevron-right" viewBox="0 0 24 24">
<path d="M9.707 18.707l6-6c0.391-0.391 0.391-1.024 0-1.414l-6-6c-0.391-0.391-1.024-0.391-1.414 0s-0.391 1.024 0 1.414l5.293 5.293-5.293 5.293c-0.391 0.391-0.391 1.024 0 1.414s1.024 0.391 1.414 0z"></path>
</symbol>
    <symbol id="icon-minus" viewBox="0 0 24 24">
<path d="M5 13h14c0.552 0 1-0.448 1-1s-0.448-1-1-1h-14c-0.552 0-1 0.448-1 1s0.448 1 1 1z"></path>
</symbol>
   <symbol id="icon-plus" viewBox="0 0 24 24">
<path d="M5 13h6v6c0 0.552 0.448 1 1 1s1-0.448 1-1v-6h6c0.552 0 1-0.448 1-1s-0.448-1-1-1h-6v-6c0-0.552-0.448-1-1-1s-1 0.448-1 1v6h-6c-0.552 0-1 0.448-1 1s0.448 1 1 1z"></path>
</symbol>
  </defs>
</svg>
